# xmcd CD database file
#
# Track frame offsets:
#	150
#	23979
#	41723
#	55609
#	79905
#	114917
#	131627
#
# Disc length: 2063 seconds
#
# Revision: 0
# Processed by: cddbd v1.4PL0 Copyright (c) Steve Scherf et al.
# Submitted via: NeoAudio 9.9.9
#
DISCID=54080d07
DTITLE=Claude Bolling/ Jean-Pierre Rampal - Suite for Flute and Jazz Piano Trio
DYEAR=1976
DGENRE=Jazz
TTITLE0=Baroque and Blue
TTITLE1=Sentimentale
TTITLE2=Javanaise
TTITLE3=Fugace
TTITLE4=Irlandaise
TTITLE5=Versatile
TTITLE6=Véloce
EXTD=YEAR: 1976
EXTT0=
EXTT1=
EXTT2=
EXTT3=
EXTT4=
EXTT5=
EXTT6=
PLAYORDER=
